<svg xmlns="http://www.w3.org/2000/svg" viewBox="0 0 379.99 250.33">
  <path fill="#e54126" d="M87.98 93.03H69.87V76.32h18.11v16.71Z" />
  <path fill="#00aac2" d="M239.83 93.03h-18.11V76.32h18.11v16.71Z" />
  <path fill="#f7ee63" d="M137.01 76.32h17.92v16.71h-17.92z" />
  <path fill="#02ae4d" d="M183.29 76.32h17.92v16.71h-17.92z" />
  <path fill="#db8627" d="M100.45 76.32h18.37v16.71h-18.37z" />
  <path fill="#e54126" d="M87.98 68.92H69.87V0h18.11v68.92Z" />
  <path fill="#00aac2" d="M239.83 68.92h-18.11V0h18.11v68.92Z" />
  <path fill="#f7ee63" d="M137.01 0h17.92v68.92h-17.92z" />
  <path fill="#02ae4d" d="M183.29 0h17.92v68.92h-17.92z" />
  <path fill="#db8627" d="M100.45 0h18.37v68.92h-18.37z" />
  <g class="logo-text" fill="#fff">
    <path d="M298.66 102.12c4.83 2.17 8.82 5.58 11.97 10.25 2.84 4.11 4.67 8.89 5.52 14.32.49 3.18.69 7.76.59 13.75h-50.45c.29 6.95 2.7 11.82 7.24 14.62 2.76 1.74 6.09 2.61 9.99 2.61 4.12 0 7.48-1.06 10.05-3.18 1.41-1.14 2.65-2.73 3.73-4.77h18.49c-.49 4.11-2.72 8.28-6.71 12.52-6.21 6.74-14.89 10.1-26.05 10.1-9.22 0-17.36-2.84-24.4-8.52-7.04-5.68-10.57-14.93-10.57-27.73 0-12 3.18-21.2 9.54-27.6 6.37-6.4 14.62-9.61 24.77-9.61 6.03 0 11.46 1.08 16.29 3.25Zm-27.1 15.64c-2.56 2.64-4.17 6.21-4.83 10.72h31.2c-.33-4.81-1.94-8.46-4.83-10.95-2.88-2.49-6.46-3.73-10.74-3.73-4.65 0-8.25 1.32-10.8 3.96Z" />
    <path d="M127.35 114.25v-12.9h9.66v-8.47h17.92v8.47h11.25v12.9h-11.25v36.6c0 2.84.36 4.61 1.08 5.31s2.92 1.05 6.61 1.05c.55 0 1.13-.01 1.75-.03s1.22-.05 1.81-.1v13.54l-8.58.32c-8.56.3-14.4-1.19-17.54-4.45-2.03-2.08-3.05-5.27-3.05-9.6v-42.64h-9.66Z" />
    <path d="M173.66 114.25v-12.9h9.66v-8.47h17.92v8.47h11.25v12.9h-11.25v36.6c0 2.84.36 4.61 1.08 5.31s2.92 1.05 6.61 1.05c.55 0 1.13-.01 1.75-.03s1.22-.05 1.81-.1v13.54l-8.58.32c-8.56.3-14.4-1.19-17.54-4.45-2.03-2.08-3.05-5.27-3.05-9.6v-42.64h-9.66Z" />
    <path d="M100.45 100.62h18.37v69.27h-18.37v-69.27Z" />
    <path d="M87.98 169.98H69.87V93.02h18.11v76.96Z" />
    <path d="M239.83 169.98h-18.11V93.02h18.11v76.96Z" />
    <path d="M252.04 178.71h18.37l10.55 49.88 10.8-49.88h18.87l-20.08 69.27h-18.62l-10.87-50.46-10.99 50.46h-18.81l-19.45-69.27h19.45l10.8 49.69 9.98-49.69Z" />
    <path d="M125.85 182.49c4.53 3.75 6.8 9.97 6.8 18.65v46.64h-18.56v-42.13c0-3.64-.49-6.44-1.45-8.39-1.77-3.56-5.13-5.34-10.09-5.34-6.1 0-10.28 2.61-12.55 7.82-1.18 2.75-1.77 6.27-1.77 10.55v37.49H70.12v-69.14h17.54v10.1c2.32-3.56 4.51-6.12 6.58-7.69 3.72-2.8 8.42-4.19 14.12-4.19 7.13 0 12.95 1.87 17.5 5.62Z" />
    <path d="M0 154.43h17.79v50.53l22.85-26.13h22.52l-24.83 25.81 25.79 43.14H42.08l-16.79-29.59-7.5 7.8v21.8H0v-93.35Z" />
    <path d="M202.34 239.5c-5.85 7.22-14.72 10.82-26.63 10.82s-20.78-3.61-26.63-10.82c-5.85-7.22-8.77-15.91-8.77-26.06s2.92-18.65 8.77-25.97 14.72-10.98 26.63-10.98 20.78 3.66 26.63 10.98c5.85 7.32 8.77 15.98 8.77 25.97s-2.92 18.85-8.77 26.06Zm-14.49-10.01c2.84-3.77 4.26-9.12 4.26-16.06s-1.42-12.28-4.26-16.02-6.91-5.61-12.2-5.61-9.37 1.87-12.23 5.61c-2.86 3.74-4.29 9.09-4.29 16.02s1.43 12.29 4.29 16.06c2.86 3.77 6.94 5.65 12.23 5.65s9.36-1.88 12.2-5.65Z" />
    <path d="M373.19 182.68c4.53 3.75 6.8 9.97 6.8 18.65v46.64h-18.56v-42.13c0-3.64-.49-6.44-1.45-8.39-1.77-3.56-5.13-5.34-10.09-5.34-6.1 0-10.28 2.61-12.55 7.82-1.18 2.75-1.77 6.27-1.77 10.55v37.49h-18.11v-69.14H335v10.1c2.32-3.56 4.51-6.12 6.58-7.69 3.72-2.8 8.42-4.19 14.12-4.19 7.13 0 12.95 1.87 17.5 5.62Z" />
  </g>
</svg>